HIERARCHY
ROOT joint_Root
{
	OFFSET 0.0 0.0 0.0
	CHANNELS 6 Xposition Yposition Zposition Zrotation Xrotation Yrotation 
	JOINT Hips
	{
		OFFSET -17.1583 93.1646 452.98
		CHANNELS 6 Xposition Yposition Zposition Zrotation Xrotation Yrotation 
		JOINT Spine
		{
			OFFSET 15.7357 0.0 0.0
			CHANNELS 6 Xposition Yposition Zposition Zrotation Xrotation Yrotation 
			JOINT Chest
			{
				OFFSET 8.98455 -0.406207 0.0
				CHANNELS 6 Xposition Yposition Zposition Zrotation Xrotation Yrotation 
				JOINT Neck
				{
					OFFSET 16.3773 0.0 0.0
					CHANNELS 6 Xposition Yposition Zposition Zrotation Xrotation Yrotation 
					JOINT Head
					{
						OFFSET 6.45672 0.0 0.0
						CHANNELS 6 Xposition Yposition Zposition Zrotation Xrotation Yrotation 
						End Site
						{
							OFFSET 0.0 0.0 0.0
						}
					}
				}
				JOINT Shoulder_L
				{
					OFFSET 12.9942 -0.242716 4.98039
					CHANNELS 6 Xposition Yposition Zposition Zrotation Xrotation Yrotation 
					JOINT UpperArm_L
					{
						OFFSET 5.34809 0.0 0.0
						CHANNELS 6 Xposition Yposition Zposition Zrotation Xrotation Yrotation 
						JOINT LowerArm_L
						{
							OFFSET 24.3286 1.87007e-05 0.0
							CHANNELS 6 Xposition Yposition Zposition Zrotation Xrotation Yrotation 
							JOINT Hand_L
							{
								OFFSET 22.2916 0.0 0.0
								CHANNELS 6 Xposition Yposition Zposition Zrotation Xrotation Yrotation 
								End Site
								{
									OFFSET 0.0 0.0 0.0
								}
							}
						}
					}
				}
				JOINT Shoulder_R
				{
					OFFSET 12.9945 -0.242716 -4.98039
					CHANNELS 6 Xposition Yposition Zposition Zrotation Xrotation Yrotation 
					JOINT UpperArm_R
					{
						OFFSET -5.34813 0.0 0.0
						CHANNELS 6 Xposition Yposition Zposition Zrotation Xrotation Yrotation 
						JOINT LowerArm_R
						{
							OFFSET -24.3289 0.000322201 0.0
							CHANNELS 6 Xposition Yposition Zposition Zrotation Xrotation Yrotation 
							JOINT Hand_R
							{
								OFFSET -22.2915 -0.000108084 0.0
								CHANNELS 6 Xposition Yposition Zposition Zrotation Xrotation Yrotation 
								End Site
								{
									OFFSET 0.0 0.0 0.0
								}
							}
						}
					}
				}
			}
		}
		JOINT UpperLeg_L
		{
			OFFSET -2.19248 -6.46944 0.0
			CHANNELS 6 Xposition Yposition Zposition Zrotation Xrotation Yrotation 
			JOINT LowerLeg_L
			{
				OFFSET 39.0811 0.0 -1.23785e-05
				CHANNELS 6 Xposition Yposition Zposition Zrotation Xrotation Yrotation 
				JOINT Foot_L
				{
					OFFSET 40.9854 0.0 -1.26872e-05
					CHANNELS 6 Xposition Yposition Zposition Zrotation Xrotation Yrotation 
					JOINT Toes_L
					{
						OFFSET 11.7543 0.0 0.0
						CHANNELS 6 Xposition Yposition Zposition Zrotation Xrotation Yrotation 
						End Site
						{
							OFFSET 0.0 0.0 0.0
						}
					}
				}
			}
		}
		JOINT UpperLeg_R
		{
			OFFSET -2.19251 6.46944 0.0
			CHANNELS 6 Xposition Yposition Zposition Zrotation Xrotation Yrotation 
			JOINT LowerLeg_R
			{
				OFFSET -39.0811 -0.00228153 -0.0401928
				CHANNELS 6 Xposition Yposition Zposition Zrotation Xrotation Yrotation 
				JOINT Foot_R
				{
					OFFSET -40.9854 0.0 0.0
					CHANNELS 6 Xposition Yposition Zposition Zrotation Xrotation Yrotation 
					JOINT Toes_R
					{
						OFFSET -11.7543 0.0 0.0
						CHANNELS 6 Xposition Yposition Zposition Zrotation Xrotation Yrotation 
						End Site
						{
							OFFSET 0.0 0.0 0.0
						}
					}
				}
			}
		}
	}
}
MOTION
Frames:	4
Frame Time:	0.0333333
0.000000 0.000000 0.000000 0.000000 0.000000 -0.000000 191.248000 90.141200 -114.182000 84.683200 10.017300 4.892360 15.735700 0.000005 -0.000001 84.427400 85.296200 -81.320900 8.984550 -0.406207 -0.000000 1.634170 -1.079050 6.223000 16.377300 -0.000001 -0.000001 3.886680 -1.968410 -1.592080 6.456720 -0.000001 -0.000000 -4.940210 -3.922510 -1.991300 12.994200 -0.242716 4.980390 -93.339000 9.493900 -70.520400 5.348090 -0.000007 -0.000001 -72.624300 -11.457300 2.819950 24.328600 0.000019 0.000005 8.785920 28.679400 -17.851200 22.291600 -0.000001 0.000005 48.593900 4.600880 14.899800 12.994500 -0.242716 -4.980390 88.160500 4.694110 -68.572300 -5.348130 -0.000001 -0.000004 -70.230800 12.848800 -7.602730 -24.328900 0.000322 -0.000009 -0.177142 -0.804359 -12.335200 -22.291500 -0.000108 -0.000004 38.135000 5.428630 -3.892060 -2.192480 -6.469440 -0.000000 -172.337000 -2.063820 -11.275300 39.081100 -0.000007 -0.000012 -0.012487 0.004877 68.688100 40.985400 -0.000006 -0.000013 -2.919380 -1.714000 -39.099100 11.754300 -0.000000 0.000003 0.002290 0.060202 -14.134900 -2.192510 6.469440 -0.000001 -169.566000 5.239930 169.219000 -39.081100 -0.002282 -0.040193 0.000091 0.004433 35.799700 -40.985400 0.000008 0.000006 -1.981320 -4.759060 -77.470600 -11.754300 -0.000006 -0.000006 -0.008281 0.257977 -6.095750
0.000000 0.000000 0.000000 0.000000 0.000000 -0.000000 191.488000 90.704300 -111.380000 85.853700 9.957360 5.223700 15.735700 0.000005 -0.000001 90.115800 85.273800 -87.536100 8.984550 -0.406207 -0.000000 1.694280 -0.117464 5.156470 16.377300 -0.000001 -0.000001 4.672270 -2.299150 -1.086460 6.456720 -0.000001 -0.000000 -4.475390 -4.815850 -1.822480 12.994200 -0.242716 4.980390 -93.350900 9.206920 -69.900400 5.348090 -0.000007 -0.000001 -69.774900 -14.536500 4.925180 24.328600 0.000019 0.000005 8.133890 26.750100 -17.616700 22.291600 -0.000001 0.000005 48.422200 4.567610 15.468100 12.994500 -0.242716 -4.980390 88.175100 4.624200 -68.436200 -5.348130 -0.000001 -0.000004 -70.530200 14.788500 -9.486520 -24.328900 0.000322 -0.000009 -0.489924 -1.565930 -17.338400 -22.291500 -0.000108 -0.000004 38.631600 5.450370 -4.653350 -2.192480 -6.469440 -0.000000 -174.287000 -1.059360 -15.886500 39.081100 -0.000007 -0.000012 -0.051027 0.017767 70.808600 40.985400 -0.000006 -0.000013 -3.634280 -2.589510 -44.710300 11.754300 -0.000000 0.000003 0.002387 0.066999 -13.859400 -2.192510 6.469440 -0.000001 -171.002000 6.234000 173.187000 -39.081100 -0.002282 -0.040193 -0.001799 0.007828 33.053900 -40.985400 0.000008 0.000006 -1.973540 -3.684380 -77.490900 -11.754300 -0.000006 -0.000006 -0.007797 0.254032 -6.256880
0.000000 0.000000 0.000000 0.000000 0.000000 -0.000000 191.834000 91.479700 -108.770000 87.347600 9.602770 4.829820 15.735700 0.000005 -0.000001 95.032800 85.380300 -93.113100 8.984550 -0.406207 -0.000000 1.428890 0.704033 3.827220 16.377300 -0.000001 -0.000001 5.530230 -2.497130 -0.675504 6.456720 -0.000001 -0.000000 -4.128220 -5.424420 -1.635710 12.994200 -0.242716 4.980390 -93.331400 8.839520 -69.253500 5.348090 -0.000007 -0.000001 -66.449000 -17.806000 6.920650 24.328600 0.000019 0.000005 7.956280 25.228700 -18.154600 22.291600 -0.000001 0.000005 47.946400 4.545900 15.834900 12.994500 -0.242716 -4.980390 88.338100 4.197770 -68.378200 -5.348130 -0.000001 -0.000004 -71.454600 15.916500 -11.015800 -24.328900 0.000322 -0.000009 -0.642310 -1.516650 -22.912600 -22.291500 -0.000108 -0.000004 39.310900 5.453090 -4.750610 -2.192480 -6.469440 -0.000000 -176.734000 -0.289785 -19.877800 39.081100 -0.000007 -0.000012 -0.089172 0.033922 69.176200 40.985400 -0.000006 -0.000013 -3.251170 -4.655350 -51.189800 11.754300 -0.000000 0.000003 0.002431 0.071253 -13.686900 -2.192510 6.469440 -0.000001 -172.700000 5.587730 176.905000 -39.081100 -0.002282 -0.040193 -0.003923 0.012935 29.190900 -40.985400 0.000008 0.000006 -2.595270 -3.281700 -76.433900 -11.754300 -0.000006 -0.000006 -0.006282 0.241045 -6.786970
0.000000 0.000000 0.000000 0.000000 0.000000 -0.000000 192.263000 92.267700 -106.358000 88.942100 8.798090 3.997660 15.735700 0.000005 -0.000001 100.649000 85.557100 -99.411900 8.984550 -0.406207 -0.000000 0.951477 1.567830 2.459670 16.377300 -0.000001 -0.000001 6.303200 -2.563780 -0.439747 6.456720 -0.000001 -0.000000 -3.969540 -5.951940 -1.527800 12.994200 -0.242716 4.980390 -93.342900 8.581150 -68.621100 5.348090 -0.000007 -0.000001 -62.885700 -20.025500 8.709840 24.328600 0.000019 0.000005 7.732300 23.395900 -18.878000 22.291600 -0.000001 0.000005 47.814200 4.518580 16.291900 12.994500 -0.242716 -4.980390 88.558000 3.640860 -68.376000 -5.348130 -0.000001 -0.000004 -72.406900 17.042800 -12.399100 -24.328900 0.000322 -0.000009 -0.857028 -1.592360 -28.268900 -22.291500 -0.000108 -0.000004 39.499200 5.465090 -5.188410 -2.192480 -6.469440 -0.000000 -179.192000 0.571967 -22.881200 39.081100 -0.000007 -0.000012 -0.101140 0.049812 63.782100 40.985400 -0.000006 -0.000013 -3.027790 -7.301770 -56.429800 11.754300 -0.000000 0.000003 0.002460 0.075080 -13.531800 -2.192510 6.469440 -0.000001 -174.627000 5.413440 -179.877000 -39.081100 -0.002282 -0.040193 -0.003302 0.014190 24.991000 -40.985400 0.000008 0.000006 -2.899750 -2.242970 -74.827500 -11.754300 -0.000006 -0.000006 -0.005541 0.234273 -7.063130
